HIERARCHY
ROOT root
{
	OFFSET 0.000000 0.000000 0.000000
	CHANNELS 6 Xposition Yposition Zposition Zrotation Yrotation Xrotation
	JOINT lhip
	{
		OFFSET 0.058581 -0.082280 -0.017664
		CHANNELS 3 Zrotation Yrotation Xrotation
		JOINT lknee
		{
			OFFSET 0.043451 -0.386469 0.008037
			CHANNELS 3 Zrotation Yrotation Xrotation
			JOINT lankle
			{
				OFFSET -0.014790 -0.426874 -0.037428
				CHANNELS 3 Zrotation Yrotation Xrotation
				JOINT ltoe
				{
					OFFSET 0.041054 -0.060286 0.122042
					CHANNELS 3 Zrotation Yrotation Xrotation
					End Site
					{
						OFFSET 0.000000 0.000000 0.000000
					}
				}
			}
		}
	}
	JOINT rhip
	{
		OFFSET -0.060310 -0.090513 -0.013543
		CHANNELS 3 Zrotation Yrotation Xrotation
		JOINT rknee
		{
			OFFSET -0.043257 -0.383688 -0.004843
			CHANNELS 3 Zrotation Yrotation Xrotation
			JOINT rankle
			{
				OFFSET 0.019056 -0.420046 -0.034562
				CHANNELS 3 Zrotation Yrotation Xrotation
				JOINT rtoe
				{
					OFFSET -0.034840 -0.062106 0.130323
					CHANNELS 3 Zrotation Yrotation Xrotation
					End Site
					{
						OFFSET 0.000000 0.000000 0.000000
					}
				}
			}
		}
	}
	JOINT lowerback
	{
		OFFSET 0.004439 0.124404 -0.038385
		CHANNELS 3 Zrotation Yrotation Xrotation
		JOINT upperback
		{
			OFFSET 0.004488 0.137956 0.026820
			CHANNELS 3 Zrotation Yrotation Xrotation
			JOINT chest
			{
				OFFSET -0.002265 0.056032 0.002855
				CHANNELS 3 Zrotation Yrotation Xrotation
				JOINT lowerneck
				{
					OFFSET -0.013390 0.211636 -0.033468
					CHANNELS 3 Zrotation Yrotation Xrotation
					JOINT upperneck
					{
						OFFSET 0.010113 0.088937 0.050410
						CHANNELS 3 Zrotation Yrotation Xrotation
						End Site
						{
							OFFSET 0.000000 0.000000 0.000000
						}
					}
				}
				JOINT lclavicle
				{
					OFFSET 0.071702 0.114000 -0.018898
					CHANNELS 3 Zrotation Yrotation Xrotation
					JOINT lshoulder
					{
						OFFSET 0.122921 0.045205 -0.019046
						CHANNELS 3 Zrotation Yrotation Xrotation
						JOINT lelbow
						{
							OFFSET 0.255332 -0.015649 -0.022946
							CHANNELS 3 Zrotation Yrotation Xrotation
							JOINT lwrist
							{
								OFFSET 0.265709 0.012698 -0.007375
								CHANNELS 3 Zrotation Yrotation Xrotation
								End Site
								{
									OFFSET 0.000000 0.000000 0.000000
								}
							}
						}
					}
				}
				JOINT rclavicle
				{
					OFFSET -0.082954 0.112472 -0.023707
					CHANNELS 3 Zrotation Yrotation Xrotation
					JOINT rshoulder
					{
						OFFSET -0.113228 0.046853 -0.008472
						CHANNELS 3 Zrotation Yrotation Xrotation
						JOINT relbow
						{
							OFFSET -0.260127 -0.014369 -0.031269
							CHANNELS 3 Zrotation Yrotation Xrotation
							JOINT rwrist
							{
								OFFSET -0.269108 0.006794 -0.006027
								CHANNELS 3 Zrotation Yrotation Xrotation
								End Site
								{
									OFFSET 0.000000 0.000000 0.000000
								}
							}
						}
					}
				}
			}
		}
	}
}
MOTION
Frames: 8
Frame Time: 0.033333
-0.452525 0.277975 1.013566 87.372277 -2.038176 87.659923 -0.010250 0.076980 4.403933 -2.854169 -8.956837 2.501293 1.158695 8.675468 -7.485529 0.000000 -0.000000 0.000000 -2.286408 -3.803769 -0.979290 1.042596 -1.851071 10.937883 3.460043 -6.171432 -8.352161 0.000000 -0.000000 0.000000 1.258540 0.546713 4.434796 0.438067 -0.745978 -1.121929 -0.667576 -0.527170 3.034295 2.534711 7.648510 15.015416 -2.221300 4.097679 23.327582 -21.999336 10.940656 -0.491232 -59.175504 -8.240337 10.476976 2.557936 -26.926301 13.426114 -5.137677 -5.771187 -7.505575 24.397882 -5.291297 -1.505483 58.038784 8.234847 16.223388 -7.662962 18.244066 3.813346 6.920530 3.324634 -3.454466 
-0.451900 0.280970 1.013243 87.308968 -1.984342 87.934997 -0.144423 0.076212 4.144133 -2.865459 -9.002395 2.543345 1.326804 8.770294 -7.529955 0.000000 -0.000000 0.000000 -2.457722 -3.638937 -1.372548 1.131895 -1.811678 11.177451 3.811217 -6.441169 -8.504167 0.000000 -0.000000 0.000000 1.225645 0.316882 4.270730 0.385221 -0.671645 -1.531764 -0.710783 -0.415256 3.068696 2.536680 7.585821 14.926727 -2.236920 4.281886 23.528400 -21.843435 11.249468 -0.321977 -59.512423 -7.914326 10.518481 2.528267 -26.460429 14.074621 -4.906792 -5.518695 -7.416530 24.399943 -5.529403 -1.507571 58.164298 8.164754 16.390434 -7.565348 18.474721 3.926734 6.523777 3.409882 -3.352383 
-0.450329 0.283498 1.012921 86.924580 -1.972053 87.886182 -0.161141 0.388832 4.558155 -3.043726 -8.883315 2.097819 1.350091 8.709444 -7.384026 0.000000 -0.000000 0.000000 -2.665505 -3.610759 -1.433948 1.169193 -1.606561 11.486078 3.952224 -6.224373 -8.728520 0.000000 -0.000000 0.000000 1.008549 0.531104 3.991505 0.437624 -0.539055 -1.215019 -0.642249 -0.410047 3.074065 2.663807 7.704684 14.725188 -2.356622 4.271839 23.369369 -21.914778 11.248110 -0.290741 -59.733498 -7.756869 10.556971 2.611545 -25.715998 14.185753 -4.885627 -5.441105 -7.189081 24.515387 -5.547217 -1.543078 58.169226 8.245768 16.420296 -7.658891 18.473954 3.813694 6.434136 3.433848 -3.375959 
-0.449155 0.286548 1.012445 86.403543 -1.978368 87.769115 -0.325390 0.762660 4.867535 -3.111092 -8.879956 2.002757 1.566720 8.838087 -7.569522 0.000000 -0.000000 0.000000 -2.898634 -3.541494 -1.712327 1.173917 -1.445056 12.249470 4.042513 -6.037234 -9.026195 0.000000 -0.000000 0.000000 0.903713 0.569662 4.115162 0.354404 -0.444865 -1.235611 -0.693357 -0.346741 3.147682 2.792214 7.817586 14.569771 -2.451033 4.291134 23.261816 -21.905319 11.378970 -0.358235 -59.825886 -7.431205 10.410282 2.682007 -25.126744 14.182743 -4.775879 -5.409271 -7.117730 24.648279 -5.479795 -1.568201 58.337144 8.443473 16.473518 -7.706818 18.636950 3.734958 6.180407 3.477021 -3.343881 
-0.448512 0.287967 1.012277 86.231645 -1.960379 87.772142 -0.351202 0.920079 4.917506 -3.200404 -8.769450 2.006112 1.607643 8.739338 -7.614011 0.000000 -0.000000 0.000000 -2.921699 -3.595116 -1.804812 1.085564 -1.272440 12.435026 4.008624 -6.038807 -9.066212 0.000000 -0.000000 0.000000 0.749801 0.657702 4.062106 0.390632 -0.434896 -1.174776 -0.653310 -0.412228 3.179098 2.830221 7.753858 14.502943 -2.529868 4.209917 23.271088 -21.962123 11.391527 -0.339434 -59.787237 -7.401352 10.376292 2.631290 -24.698345 14.194285 -4.669779 -5.465575 -7.096705 24.695941 -5.479682 -1.646040 58.445646 8.562361 16.568219 -7.728392 18.730241 3.811343 6.003048 3.429969 -3.366645 
-0.447802 0.289843 1.012138 86.083457 -1.922912 87.755882 -0.416926 0.964191 4.968265 -3.271433 -8.701984 2.080085 1.807204 8.781056 -7.711436 0.000000 -0.000000 0.000000 -2.941647 -3.476182 -1.888896 1.006273 -1.183442 12.646831 4.022246 -6.111000 -9.154433 0.000000 -0.000000 0.000000 0.655137 0.553798 4.191304 0.385543 -0.502212 -1.250110 -0.664274 -0.363790 3.153082 2.873934 7.889450 14.541859 -2.503735 4.361964 23.212879 -21.946156 11.407510 -0.309300 -59.750619 -7.234506 10.324228 2.735645 -24.503463 14.206546 -4.681421 -5.288182 -7.014124 24.759429 -5.363682 -1.526496 58.539330 8.702098 16.636397 -7.795872 19.028389 3.705504 6.012378 3.431289 -3.507056 
-0.447383 0.291667 1.011795 85.770396 -1.833175 87.711029 -0.432497 0.907219 5.091495 -3.332003 -8.444285 2.063210 1.862774 8.954548 -7.761526 0.000000 -0.000000 0.000000 -2.951402 -3.288451 -2.001673 0.992618 -1.135361 12.936945 4.065572 -6.080785 -9.236576 0.000000 -0.000000 0.000000 0.660520 0.625864 4.155472 0.361128 -0.438997 -1.055340 -0.704839 -0.356047 3.206214 2.993325 7.907062 14.506210 -2.533654 4.227434 23.303275 -21.955395 11.186264 -0.353263 -59.661611 -7.306550 10.272113 2.938754 -24.025661 13.880891 -4.537044 -5.432703 -6.838170 24.836782 -5.280820 -1.683462 58.607018 8.822213 16.774543 -7.788209 19.361131 3.680585 5.943395 3.548802 -3.571957 
-0.447494 0.293366 1.011637 86.143913 -1.637242 87.887714 -0.288597 0.641989 4.595155 -3.405375 -8.467136 2.588774 1.847882 8.782860 -7.874913 0.000000 -0.000000 0.000000 -2.848734 -3.349224 -2.185133 1.021703 -1.327674 12.965967 4.171048 -6.263489 -9.217942 0.000000 -0.000000 0.000000 0.738557 0.408214 4.197315 0.441663 -0.660948 -1.328715 -0.715140 -0.448087 3.295487 2.946297 7.913144 14.642763 -2.537552 4.291492 23.430266 -22.015753 11.185700 -0.406266 -59.552002 -7.407355 10.220788 3.003469 -23.924266 13.738140 -4.328727 -5.343844 -6.679839 24.760051 -5.260153 -1.697736 58.683408 8.855727 16.936946 -7.760475 19.873023 3.812692 5.842959 3.684557 -3.589643 
